<svg width="24" height="24" viewBox="0 0 24 24" fill="none" xmlns="http://www.w3.org/2000/svg"><path d="M4.74954 20.0001C5.16376 20.0001 5.49954 19.6643 5.49954 19.2501C5.49954 18.8359 5.16376 18.5001 4.74954 18.5001C4.33533 18.5001 3.99954 18.8359 3.99954 19.2501C3.99954 19.6643 4.33533 20.0001 4.74954 20.0001Z" fill="#003878"></path><path fill-rule="evenodd" clip-rule="evenodd" d="M18.244 0.794534C17.1202 0.484573 15.9377 0.449356 14.7993 0.699728C13.3877 1.01016 12.1116 1.74482 11.1415 2.80771C10.1714 3.87057 9.55517 5.20919 9.37242 6.64472C9.21328 7.89476 9.43553 8.98536 9.7474 9.97553L2.49735 16.3086C2.11025 16.6365 1.79708 17.0423 1.57739 17.5002C1.35676 17.96 1.23555 18.4617 1.22038 18.973C1.20521 19.4843 1.29637 19.9942 1.48703 20.4707C1.67767 20.9472 1.96387 21.3805 2.32733 21.7439C2.68993 22.1064 3.12222 22.392 3.59744 22.5825C4.07269 22.773 4.58123 22.8646 5.09134 22.8503C5.60151 22.836 6.10221 22.7162 6.56155 22.4973C7.01882 22.2794 7.42457 21.9683 7.75312 21.5835L14.1228 14.3562C15.1189 14.6804 16.3106 14.9722 17.6327 14.7816C19.1329 14.5654 20.5171 13.8755 21.5832 12.8095C22.5314 11.8619 23.1848 10.6599 23.4692 9.34381C23.692 8.31215 23.6809 7.24395 23.4426 6.21585C23.2089 5.20778 22.0202 5.04044 21.403 5.6576L18.6243 8.43634C18.5267 8.53397 18.3684 8.53397 18.2708 8.43634L15.8838 6.04944C15.7862 5.95181 15.7862 5.79352 15.8838 5.69588L18.7557 2.824C19.3617 2.21805 19.2152 1.06239 18.244 0.794534ZM15.1214 2.16472C15.8482 2.00489 16.6002 1.99232 17.3341 2.12432L14.8232 4.63522C14.1398 5.31864 14.1398 6.42668 14.8232 7.1101L17.2101 9.497C17.8935 10.1804 19.0015 10.1804 19.685 9.497L22.0805 7.10149C22.1649 7.74358 22.1395 8.39494 22.003 9.02705C21.7791 10.0633 21.2655 11.0064 20.5227 11.7486C19.6877 12.5836 18.6012 13.1266 17.4187 13.297C16.3866 13.4457 15.4161 13.2077 14.4459 12.8833C13.9729 12.7251 13.4428 12.8591 13.1053 13.2421L6.62366 20.5964L6.61497 20.6064C6.42294 20.8323 6.18521 21.015 5.91629 21.1432C5.64733 21.2713 5.3523 21.3424 5.04935 21.3509C4.74634 21.3594 4.44195 21.305 4.15559 21.1902C3.8692 21.0754 3.60766 20.9028 3.38785 20.6831C3.16753 20.4628 2.99458 20.2006 2.87969 19.9135C2.76481 19.6264 2.71071 19.3212 2.71972 19.0175C2.72872 18.7139 2.8006 18.4183 2.92978 18.1491C3.05894 17.8799 3.2429 17.6422 3.46997 17.4505L3.47963 17.4422L10.8556 10.9992C11.2424 10.6613 11.3753 10.1308 11.2213 9.65941C10.9177 8.73011 10.733 7.83527 10.8604 6.83416C11.0045 5.70236 11.4895 4.65146 12.2494 3.81891C13.0093 2.98638 14.0102 2.4091 15.1214 2.16472Z" fill="#003878"></path></svg>