<svg width="24" height="24" viewBox="0 0 24 24" fill="none" xmlns="http://www.w3.org/2000/svg"><path d="M4.25 6.75C4.25 6.33579 4.58579 6 5 6H11C11.4142 6 11.75 6.33579 11.75 6.75C11.75 7.16421 11.4142 7.5 11 7.5H5C4.58579 7.5 4.25 7.16421 4.25 6.75Z" fill="#003878"></path><path d="M4.25 9.25C4.25 8.83579 4.58579 8.5 5 8.5H11C11.4142 8.5 11.75 8.83579 11.75 9.25C11.75 9.66421 11.4142 10 11 10H5C4.58579 10 4.25 9.66421 4.25 9.25Z" fill="#003878"></path><path fill-rule="evenodd" clip-rule="evenodd" d="M0.25 5C0.25 3.48122 1.48122 2.25 3 2.25H16.2142C18.05 2.25 19.3569 4.00858 18.86 5.75H19.5C20.4665 5.75 21.25 6.5335 21.25 7.5V7.75H23.25C23.6642 7.75 24 8.08579 24 8.5C24 8.91421 23.6642 9.25 23.25 9.25H21.25V9.5C21.25 10.4665 20.4665 11.25 19.5 11.25H17.0072L16.7948 11.8794C16.4175 12.9973 15.3691 13.75 14.1892 13.75H11.2268L10.8844 16.8319C10.7631 17.9239 9.84008 18.75 8.74138 18.75C8.41044 18.75 8.13128 18.9964 8.09023 19.3248L7.8537 21.2171C7.74424 22.0928 6.99978 22.75 6.11722 22.75H4.12454C3.07701 22.75 2.26413 21.8359 2.38653 20.7955L3.21542 13.75H3C1.48122 13.75 0.25 12.5188 0.25 11V5ZM4.72576 13.75L3.87626 20.9708C3.85877 21.1194 3.9749 21.25 4.12454 21.25H6.11722C6.2433 21.25 6.34965 21.1561 6.36529 21.031L6.60182 19.1388C6.7367 18.0597 7.65395 17.25 8.74138 17.25C9.07575 17.25 9.35665 16.9986 9.39358 16.6663L9.71761 13.75H4.72576ZM19.5 9.75H17.5134L18.3572 7.25H19.5C19.6381 7.25 19.75 7.36193 19.75 7.5V9.5C19.75 9.63807 19.6381 9.75 19.5 9.75ZM3 3.75C2.30964 3.75 1.75 4.30964 1.75 5V11C1.75 11.6904 2.30964 12.25 3 12.25H14.1892C14.7255 12.25 15.202 11.9079 15.3735 11.3997L17.3985 5.39972C17.672 4.58946 17.0693 3.75 16.2142 3.75H3Z" fill="#003878"></path></svg>