<svg xmlns="http://www.w3.org/2000/svg" width="24" height="24" fill="none"><path fill="#003878" d="M12.77 2.77a10 10 0 0 0-3.65 19.31c-.08-.8-.16-2 .04-2.87l1.17-4.96s-.3-.6-.3-1.49c0-1.39.8-2.43 1.8-2.43.86 0 1.28.64 1.28 1.41 0 .86-.55 2.14-.83 3.33-.24 1 .5 1.8 1.48 1.8 1.77 0 3.14-1.87 3.14-4.57 0-2.4-1.72-4.07-4.17-4.07a4.33 4.33 0 0 0-4.52 4.34c0 .86.33 1.78.75 2.28.08.1.09.19.07.29l-.28 1.13c-.04.18-.14.22-.34.13-1.25-.58-2.03-2.4-2.03-3.87 0-3.16 2.3-6.05 6.6-6.05 3.48 0 6.17 2.47 6.17 5.77 0 3.45-2.17 6.22-5.19 6.22-1 0-1.96-.52-2.29-1.15l-.62 2.38c-.23.87-.84 1.96-1.24 2.62a10.02 10.02 0 0 0 12.96-9.55 10 10 0 0 0-10-10Z"/></svg>
