<svg xmlns="http://www.w3.org/2000/svg" width="24" height="24" fill="none"><g fill="#003878" clip-path="url(#a)"><path d="M21.33 5.51a4.55 4.55 0 0 0-1.11-1.73 4.7 4.7 0 0 0-1.72-1.12 7.3 7.3 0 0 0-2.38-.45A69.8 69.8 0 0 0 12 2.15c-2.7 0-3.04.01-4.11.06-.94.04-1.68.18-2.38.45-.69.27-1.22.61-1.72 1.12-.51.5-.85 1.03-1.12 1.72a7.3 7.3 0 0 0-.45 2.38A70.69 70.69 0 0 0 2.16 12c0 2.68.01 3.04.06 4.11.04.94.18 1.68.45 2.38.27.69.61 1.22 1.12 1.72a4.7 4.7 0 0 0 1.72 1.12c.71.27 1.44.41 2.38.46 1.08.05 1.43.06 4.11.06 2.68 0 3.04-.01 4.11-.06a7 7 0 0 0 2.38-.46 4.7 4.7 0 0 0 1.72-1.12 4.7 4.7 0 0 0 1.12-1.72c.27-.71.41-1.44.46-2.38.05-1.08.06-1.43.06-4.11 0-2.68-.01-3.04-.06-4.11a7 7 0 0 0-.46-2.38Zm-1.04 10.53a5.58 5.58 0 0 1-.35 1.9c-.19.48-.42.84-.78 1.2a3.2 3.2 0 0 1-1.2.78c-.36.14-.91.31-1.9.35-1.07.05-1.42.06-4.05.06s-2.98-.01-4.05-.06a5.58 5.58 0 0 1-1.9-.35 3.32 3.32 0 0 1-1.2-.78 3.2 3.2 0 0 1-.78-1.2 5.58 5.58 0 0 1-.35-1.9 68.59 68.59 0 0 1-.06-4.05c0-2.63.01-2.98.06-4.05.04-.99.21-1.54.35-1.9.19-.48.42-.84.78-1.2.36-.36.71-.59 1.2-.78.36-.14.91-.31 1.9-.35 1.07-.05 1.42-.06 4.05-.06s2.98.01 4.05.06c.99.04 1.54.21 1.9.35.48.19.84.42 1.2.78.37.37.59.71.78 1.2.14.36.31.91.35 1.9.05 1.07.06 1.42.06 4.05s-.01 2.98-.06 4.05Z"/><path d="M12 7.01a5 5 0 1 0 .02 10A5 5 0 0 0 12 7Zm0 8.47a3.48 3.48 0 1 1 0-6.97 3.48 3.48 0 0 1 0 6.97Zm5.34-7.77a1.05 1.05 0 1 0 0-2.1 1.05 1.05 0 0 0 0 2.1Z"/></g><defs><clipPath id="a"><path fill="#fff" d="M0 0h19.69v19.7H0z" transform="translate(2.1499 2.15002)"/></clipPath></defs></svg>
